<svg width="80" height="80" viewBox="0 0 80 80" fill="none" xmlns="http://www.w3.org/2000/svg">
<path d="M0 40C0 50.6087 4.21427 60.7828 11.7157 68.2843C19.2172 75.7857 29.3913 80 40 80C50.6087 80 60.7828 75.7857 68.2843 68.2843C75.7857 60.7828 80 50.6087 80 40C80 29.3913 75.7857 19.2172 68.2843 11.7157C60.7828 4.21427 50.6087 0 40 0C29.3913 0 19.2172 4.21427 11.7157 11.7157C4.21427 19.2172 0 29.3913 0 40Z" fill="#FBFBFD"/>
<path d="M18.4753 49.2005C17.2868 46.3311 16.675 43.2558 16.675 40.15C16.675 37.0442 17.2868 33.9689 18.4753 31.0995C19.6638 28.2302 21.4059 25.623 23.602 23.4269C25.7981 21.2308 28.4052 19.4888 31.2746 18.3003C34.1439 17.1117 37.2193 16.5 40.325 16.5C43.4308 16.5 46.5062 17.1117 49.3755 18.3003C52.2449 19.4888 54.852 21.2308 57.0481 23.4269C59.2442 25.623 60.9863 28.2302 62.1748 31.0995C63.3633 33.9689 63.975 37.0442 63.975 40.15C63.975 43.2558 63.3633 46.3311 62.1748 49.2005C60.9863 52.0698 59.2442 54.677 57.0481 56.8731C54.852 59.0692 52.2449 60.8112 49.3755 61.9998C46.5062 63.1883 43.4308 63.8 40.325 63.8C37.2193 63.8 34.1439 63.1883 31.2746 61.9998C28.4052 60.8112 25.7981 59.0692 23.602 56.8731C21.4059 54.677 19.6638 52.0698 18.4753 49.2005Z" fill="#F1F3F9" stroke="#F0F1F4"/>
<path d="M62.217 29.776C60.7752 26.6927 58.6996 23.9479 56.1255 21.7209C53.5514 19.4938 50.5367 17.8344 47.278 16.851H43.687C42.9087 16.8335 42.1491 17.0905 41.5412 17.5768C40.9333 18.0631 40.5159 18.7478 40.362 19.511C40.2844 19.9698 40.3077 20.44 40.4304 20.8889C40.5532 21.3377 40.7723 21.7544 41.0726 22.1099C41.3728 22.4654 41.747 22.7511 42.169 22.9471C42.591 23.1432 43.0507 23.2448 43.516 23.245C43.9079 23.2454 44.2945 23.3356 44.6461 23.5088C44.9976 23.6821 45.3047 23.9336 45.5438 24.2441C45.7828 24.5547 45.9475 24.9159 46.025 25.3001C46.1026 25.6842 46.0909 26.081 45.991 26.46C45.831 27.0168 45.4913 27.5051 45.0248 27.8488C44.5583 28.1924 43.9913 28.3722 43.412 28.36H34.286C32.6041 28.3258 30.972 28.9314 29.7195 30.0545C28.4671 31.1776 27.6877 32.7343 27.539 34.41C27.4923 35.2774 27.6228 36.1452 27.9226 36.9605C28.2224 37.7758 28.6851 38.5215 29.2826 39.152C29.8801 39.7826 30.5998 40.2847 31.3978 40.6279C32.1958 40.9711 33.0554 41.148 33.924 41.148H37.682C38.1268 41.148 38.5534 41.3247 38.8679 41.6392C39.1824 41.9537 39.359 42.3802 39.359 42.825V44.185C39.3572 44.373 39.3926 44.5594 39.4631 44.7337C39.5336 44.9079 39.6379 45.0665 39.77 45.2003C39.9021 45.334 40.0594 45.4403 40.2327 45.513C40.406 45.5858 40.5921 45.6235 40.78 45.624C40.9705 45.6216 41.1595 45.6571 41.3361 45.7283C41.5127 45.7996 41.6734 45.9052 41.8089 46.0391C41.9443 46.173 42.0518 46.3324 42.1252 46.5082C42.1985 46.684 42.2362 46.8725 42.236 47.063V48.821C42.2587 49.0934 42.1843 49.3651 42.026 49.588C41.458 50.2828 41.1511 51.1546 41.1588 52.0521C41.1665 52.9495 41.4882 53.816 42.068 54.501C42.4592 54.94 42.9413 55.2885 43.4808 55.5223C44.0203 55.7561 44.6042 55.8697 45.192 55.855H46.712C50.868 55.855 52.147 52.018 52.147 50.1V43.706C52.1459 43.0696 52.3197 42.4452 52.6493 41.9008C52.9789 41.3564 53.4516 40.913 54.016 40.619C54.7636 40.1609 55.3811 39.5186 55.8095 38.7537C56.2379 37.9888 56.4629 37.1267 56.463 36.25C56.462 36.1922 56.4384 36.1372 56.3973 36.0967C56.3562 36.0561 56.3008 36.0332 56.243 36.033H53.743C53.4038 36.033 53.0785 35.8982 52.8387 35.6584C52.5988 35.4185 52.464 35.0932 52.464 34.754V33.154C52.464 32.8148 52.5988 32.4895 52.8387 32.2496C53.0785 32.0097 53.4038 31.875 53.743 31.875H59.21C59.866 31.8755 60.5062 31.6744 61.044 31.299C61.5819 30.9235 61.9914 30.3919 62.217 29.776Z" fill="white"/>
<path d="M16.175 39.985C16.175 43.1564 16.7997 46.2968 18.0134 49.2268C19.227 52.1568 21.0059 54.8191 23.2484 57.0616C25.491 59.3041 28.1532 61.083 31.0832 62.2967C34.0133 63.5103 37.1536 64.135 40.325 64.135C43.4965 64.135 46.6368 63.5103 49.5669 62.2967C52.4969 61.083 55.1591 59.3041 57.4017 57.0616C59.6442 54.8191 61.4231 52.1568 62.6367 49.2268C63.8504 46.2968 64.475 43.1564 64.475 39.985C64.475 36.8135 63.8504 33.6732 62.6367 30.7432C61.4231 27.8131 59.6442 25.1509 57.4017 22.9083C55.1591 20.6658 52.4969 18.8869 49.5669 17.6733C46.6368 16.4596 43.4965 15.835 40.325 15.835C37.1536 15.835 34.0133 16.4596 31.0832 17.6733C28.1532 18.8869 25.491 20.6658 23.2484 22.9083C21.0059 25.1509 19.227 27.8131 18.0134 30.7432C16.7997 33.6732 16.175 36.8135 16.175 39.985V39.985Z" stroke="#B1BCD2" stroke-linecap="round" stroke-linejoin="round"/>
<path d="M62.217 29.776C60.7752 26.6927 58.6996 23.9479 56.1255 21.7209C53.5514 19.4938 50.5367 17.8344 47.278 16.851H43.687C42.9087 16.8335 42.1491 17.0905 41.5412 17.5768C40.9333 18.0631 40.5159 18.7478 40.362 19.511C40.2844 19.9698 40.3077 20.44 40.4304 20.8889C40.5532 21.3377 40.7723 21.7544 41.0726 22.1099C41.3728 22.4654 41.747 22.7511 42.169 22.9471C42.591 23.1432 43.0507 23.2448 43.516 23.245C43.9079 23.2454 44.2945 23.3356 44.6461 23.5088C44.9976 23.6821 45.3047 23.9336 45.5438 24.2441C45.7828 24.5547 45.9475 24.9159 46.025 25.3001C46.1026 25.6842 46.0909 26.081 45.991 26.46C45.831 27.0168 45.4913 27.5051 45.0248 27.8488C44.5583 28.1924 43.9913 28.3722 43.412 28.36H34.286C32.6041 28.3258 30.972 28.9314 29.7195 30.0545C28.4671 31.1776 27.6877 32.7343 27.539 34.41C27.4923 35.2774 27.6228 36.1452 27.9226 36.9605C28.2224 37.7758 28.6851 38.5215 29.2826 39.152C29.8801 39.7826 30.5998 40.2847 31.3978 40.6279C32.1958 40.9711 33.0554 41.148 33.924 41.148H37.682C38.1268 41.148 38.5534 41.3247 38.8679 41.6392C39.1824 41.9537 39.359 42.3802 39.359 42.825V44.185C39.3572 44.373 39.3926 44.5594 39.4631 44.7337C39.5336 44.9079 39.6379 45.0665 39.77 45.2003C39.9021 45.334 40.0594 45.4403 40.2327 45.513C40.406 45.5858 40.5921 45.6235 40.78 45.624C40.9705 45.6216 41.1595 45.6571 41.3361 45.7283C41.5127 45.7996 41.6734 45.9052 41.8089 46.0391C41.9443 46.173 42.0518 46.3324 42.1252 46.5082C42.1985 46.684 42.2362 46.8725 42.236 47.063V48.821C42.2587 49.0934 42.1843 49.3651 42.026 49.588C41.458 50.2828 41.1511 51.1546 41.1588 52.0521C41.1665 52.9495 41.4882 53.816 42.068 54.501C42.4592 54.94 42.9413 55.2885 43.4808 55.5223C44.0203 55.7561 44.6042 55.8697 45.192 55.855H46.712C50.868 55.855 52.147 52.018 52.147 50.1V43.706C52.1459 43.0696 52.3197 42.4452 52.6493 41.9008C52.9789 41.3564 53.4516 40.913 54.016 40.619C54.7636 40.1609 55.3811 39.5186 55.8095 38.7537C56.2379 37.9888 56.4629 37.1267 56.463 36.25C56.462 36.1923 56.4384 36.1372 56.3973 36.0967C56.3562 36.0561 56.3008 36.0332 56.243 36.033H53.743C53.4038 36.033 53.0785 35.8982 52.8387 35.6584C52.5988 35.4185 52.464 35.0932 52.464 34.754V33.154C52.464 32.8148 52.5988 32.4895 52.8387 32.2496C53.0785 32.0097 53.4038 31.875 53.743 31.875H59.21C59.866 31.8755 60.5062 31.6744 61.044 31.299C61.5819 30.9235 61.9914 30.3919 62.217 29.776V29.776Z" stroke="#B6C0D4" stroke-linecap="round" stroke-linejoin="round"/>
<path d="M32.9911 63C33.2085 62.5161 33.561 62.1052 34.0063 61.8168C34.4515 61.5283 34.9706 61.3746 35.5011 61.374C35.6934 61.3741 35.8836 61.334 36.0595 61.2561C36.2353 61.1783 36.3929 61.0644 36.5221 60.922C36.7883 60.6297 37.1125 60.3961 37.4741 60.2363C37.8357 60.0765 38.2267 59.994 38.6221 59.994H45.1621C45.5281 59.994 45.8791 60.1394 46.1379 60.3982C46.3967 60.657 46.5421 61.008 46.5421 61.374C46.5421 61.74 46.6875 62.091 46.9463 62.3498C47.2051 62.6086 47.5561 62.754 47.9221 62.754H48.3931C43.4228 64.5064 38.0171 64.5931 32.9931 63.001L32.9911 63Z" fill="white" stroke="#B1BCD2" stroke-linecap="round" stroke-linejoin="round"/>
</svg>
