<svg width="80" height="80" viewBox="0 0 80 80" fill="none" xmlns="http://www.w3.org/2000/svg">
<path d="M0 40C0 50.6087 4.21427 60.7828 11.7157 68.2843C19.2172 75.7857 29.3913 80 40 80C50.6087 80 60.7828 75.7857 68.2843 68.2843C75.7857 60.7828 80 50.6087 80 40C80 29.3913 75.7857 19.2172 68.2843 11.7157C60.7828 4.21427 50.6087 0 40 0C29.3913 0 19.2172 4.21427 11.7157 11.7157C4.21427 19.2172 0 29.3913 0 40Z" fill="#FBFBFD"/>
<path d="M15 61.2301C15 61.4855 15.6466 61.7383 16.903 61.9743C18.1594 62.2102 20.0009 62.4245 22.3223 62.6051C24.6438 62.7856 27.3998 62.9289 30.4329 63.0266C33.4661 63.1243 36.717 63.1746 40 63.1746C43.283 63.1746 46.5339 63.1243 49.5671 63.0266C52.6002 62.9289 55.3562 62.7856 57.6777 62.6051C59.9991 62.4245 61.8406 62.2102 63.097 61.9743C64.3534 61.7383 65 61.4855 65 61.2301C65 60.9748 64.3534 60.722 63.097 60.486C61.8406 60.2501 59.9991 60.0358 57.6777 59.8552C55.3562 59.6747 52.6002 59.5314 49.5671 59.4337C46.5339 59.336 43.283 59.2857 40 59.2857C36.717 59.2857 33.4661 59.336 30.4329 59.4337C27.3998 59.5314 24.6438 59.6747 22.3223 59.8552C20.0009 60.0358 18.1594 60.2501 16.903 60.486C15.6466 60.722 15 60.9748 15 61.2301Z" fill="#EBEBF1"/>
<path d="M70.224 60.647H10.776C9.79475 60.647 8.85364 60.2572 8.15975 59.5633C7.46587 58.8694 7.07605 57.9283 7.07605 56.947V16.823C7.07605 15.8417 7.46587 14.9006 8.15975 14.2067C8.85364 13.5128 9.79475 13.123 10.776 13.123H69.53C70.5113 13.123 71.4525 13.5128 72.1463 14.2067C72.8402 14.9006 73.2301 15.8417 73.2301 16.823V56.95C73.2281 58.992 72.2661 60.647 70.224 60.647Z" fill="white"/>
<path d="M29.9124 52.7259C29.9124 53.0589 30.9705 53.3783 32.8541 53.6138C34.7377 53.8493 37.2924 53.9815 39.9562 53.9815C42.62 53.9815 45.1747 53.8493 47.0582 53.6138C48.9418 53.3783 50 53.0589 50 52.7259C50 52.3929 48.9418 52.0735 47.0582 51.838C45.1747 51.6025 42.62 51.4702 39.9562 51.4702C37.2924 51.4702 34.7377 51.6025 32.8541 51.838C30.9705 52.0735 29.9124 52.3929 29.9124 52.7259Z" fill="#EBEBF1"/>
<path d="M29 39C29 37.8954 29.8954 37 31 37H49C50.1046 37 51 37.8954 51 39V50C51 51.1046 50.1046 52 49 52H31C29.8954 52 29 51.1046 29 50V39Z" fill="#F1F3F9" stroke="#B1BCD2" stroke-width="1.16581" stroke-linecap="round" stroke-linejoin="round"/>
<path d="M43.6002 36.7567V33.5105C43.6002 32.544 43.2163 31.6172 42.5329 30.9338C41.8495 30.2504 40.9226 29.8665 39.9562 29.8665C38.9897 29.8665 38.0628 30.2504 37.3794 30.9338C36.6961 31.6172 36.3121 32.544 36.3121 33.5105V36.7567H32.9999V33.5105C33.019 31.6781 33.7604 29.9272 35.0629 28.6382C36.3655 27.3492 38.124 26.6261 39.9565 26.6261C41.7891 26.6261 43.5476 27.3492 44.8501 28.6382C46.1527 29.9272 46.8941 31.6781 46.9132 33.5105V36.7567H43.6002Z" fill="#F1F3F9" stroke="#B1BCD2" stroke-width="1.16581" stroke-linecap="round" stroke-linejoin="round"/>
<path d="M70.224 60.647H10.776C9.79475 60.647 8.85364 60.2572 8.15975 59.5633C7.46587 58.8694 7.07605 57.9283 7.07605 56.947V16.823C7.07605 15.8417 7.46587 14.9006 8.15975 14.2067C8.85364 13.5128 9.79475 13.123 10.776 13.123H69.53C70.5113 13.123 71.4525 13.5128 72.1463 14.2067C72.8402 14.9006 73.2301 15.8417 73.2301 16.823V56.95C73.2281 58.992 72.266 60.647 70.224 60.647Z" stroke="#B1BCD2" stroke-linejoin="round"/>
<path d="M69.53 13.125H10.776C9.79475 13.125 8.85364 13.5148 8.15975 14.2087C7.46587 14.9026 7.07605 15.8437 7.07605 16.825V21.925H73.226V16.825C73.226 15.8444 72.8368 14.9039 72.1438 14.2101C71.4507 13.5163 70.5107 13.1261 69.53 13.125Z" fill="#F1F3F9"/>
<path d="M69.53 13.125H10.776C9.79475 13.125 8.85364 13.5148 8.15975 14.2087C7.46587 14.9026 7.07605 15.8437 7.07605 16.825V21.925H73.226V16.825C73.226 15.8444 72.8368 14.9039 72.1438 14.2101C71.4507 13.5163 70.5107 13.1261 69.53 13.125V13.125Z" stroke="#B1BCD2" stroke-linejoin="round"/>
<path d="M10.775 17.8571C10.775 18.0447 10.812 18.2305 10.8838 18.4038C10.9556 18.5771 11.0608 18.7346 11.1934 18.8673C11.3261 18.9999 11.4836 19.1052 11.6569 19.177C11.8302 19.2487 12.016 19.2857 12.2036 19.2857C12.3912 19.2857 12.577 19.2487 12.7503 19.177C12.9236 19.1052 13.0811 18.9999 13.2137 18.8673C13.3464 18.7346 13.4516 18.5771 13.5234 18.4038C13.5952 18.2305 13.6322 18.0447 13.6322 17.8571C13.6322 17.6695 13.5952 17.4838 13.5234 17.3104C13.4516 17.1371 13.3464 16.9796 13.2137 16.847C13.0811 16.7143 12.9236 16.6091 12.7503 16.5373C12.577 16.4655 12.3912 16.4286 12.2036 16.4286C12.016 16.4286 11.8302 16.4655 11.6569 16.5373C11.4836 16.6091 11.3261 16.7143 11.1934 16.847C11.0608 16.9796 10.9556 17.1371 10.8838 17.3104C10.812 17.4838 10.775 17.6695 10.775 17.8571Z" fill="#EBEBF1" stroke="#B1BCD2" stroke-linejoin="round"/>
<path d="M15.775 17.8571C15.775 18.236 15.9255 18.5994 16.1934 18.8673C16.4614 19.1352 16.8247 19.2857 17.2036 19.2857C17.5825 19.2857 17.9458 19.1352 18.2137 18.8673C18.4817 18.5994 18.6322 18.236 18.6322 17.8571C18.6322 17.4782 18.4817 17.1149 18.2137 16.847C17.9458 16.5791 17.5825 16.4286 17.2036 16.4286C16.8247 16.4286 16.4614 16.5791 16.1934 16.847C15.9255 17.1149 15.775 17.4782 15.775 17.8571Z" fill="#EBEBF1" stroke="#B1BCD2" stroke-linejoin="round"/>
<path d="M20.775 17.8571C20.775 18.236 20.9255 18.5994 21.1934 18.8673C21.4614 19.1352 21.8247 19.2857 22.2036 19.2857C22.5825 19.2857 22.9458 19.1352 23.2137 18.8673C23.4817 18.5994 23.6322 18.236 23.6322 17.8571C23.6322 17.4782 23.4817 17.1149 23.2137 16.847C22.9458 16.5791 22.5825 16.4286 22.2036 16.4286C21.8247 16.4286 21.4614 16.5791 21.1934 16.847C20.9255 17.1149 20.775 17.4782 20.775 17.8571Z" fill="#EBEBF1" stroke="#B1BCD2" stroke-linejoin="round"/>
</svg>
